HIERARCHY
ROOT Hips
{
  OFFSET 52.1275 85.4009 13.2067
  CHANNELS 6 Xposition Yposition Zposition Zrotation Xrotation Yrotation
  JOINT spine
  {
    OFFSET 0 6.3926 0.367606
    CHANNELS 3 Zrotation Xrotation Yrotation
    JOINT spine1
    {
      OFFSET 0 9.17611 0
      CHANNELS 3 Zrotation Xrotation Yrotation
      JOINT spine2
      {
        OFFSET 0 8.79238 0
        CHANNELS 3 Zrotation Xrotation Yrotation
        JOINT Neck
        {
          OFFSET 0 22.5737 1.07624
          CHANNELS 3 Zrotation Xrotation Yrotation
          JOINT Head
          {
            OFFSET 0 6.82011 0
            CHANNELS 3 Zrotation Xrotation Yrotation
            End Site
            {
              OFFSET 0 16.5085 -5.44427
            }
          }
        }
        JOINT RightShoulder
        {
          OFFSET -3.70221 9.49509 -0.515508
          CHANNELS 3 Zrotation Xrotation Yrotation
          JOINT RightArm
          {
            OFFSET 0 12.4537 0
            CHANNELS 3 Zrotation Xrotation Yrotation
            JOINT RightArmRoll
            {
              OFFSET 0 6.28685 0
              CHANNELS 3 Zrotation Xrotation Yrotation
              JOINT RightForeArm
              {
                OFFSET 0 18.3114 0
                CHANNELS 3 Zrotation Xrotation Yrotation
                JOINT RightForeArmRoll
                {
                  OFFSET 0 7.05482 0
                  CHANNELS 3 Zrotation Xrotation Yrotation
                  JOINT RightHand
                  {
                    OFFSET 0 14.1575 0
                    CHANNELS 3 Zrotation Xrotation Yrotation
                    End Site
                    {
                      OFFSET 0 0 0
                    }
                  }
                }
              }
            }
          }
        }
        JOINT LeftShoulder
        {
          OFFSET 3.70221 9.49509 -0.515508
          CHANNELS 3 Zrotation Xrotation Yrotation
          JOINT LeftArm
          {
            OFFSET 0 12.4537 0
            CHANNELS 3 Zrotation Xrotation Yrotation
            JOINT LeftArmRoll
            {
              OFFSET 0 6.28686 0
              CHANNELS 3 Zrotation Xrotation Yrotation
              JOINT LeftForeArm
              {
                OFFSET 0 18.3114 0
                CHANNELS 3 Zrotation Xrotation Yrotation
                JOINT LeftForeArmRoll
                {
                  OFFSET 0 7.05482 0
                  CHANNELS 3 Zrotation Xrotation Yrotation
                  JOINT LeftHand
                  {
                    OFFSET 0 14.1575 0
                    CHANNELS 3 Zrotation Xrotation Yrotation
                    End Site
                    {
                      OFFSET 0 0 0
                    }
                  }
                }
              }
            }
          }
        }
      }
    }
  }
  JOINT RightUpLeg
  {
    OFFSET -5.66616 -1.03903 -0.87161
    CHANNELS 3 Zrotation Xrotation Yrotation
    JOINT RightUpLegRoll
    {
      OFFSET 0 16.6005 0
      CHANNELS 3 Zrotation Xrotation Yrotation
      JOINT RightLeg
      {
        OFFSET 0 -20.5572 0
        CHANNELS 3 Zrotation Xrotation Yrotation
        JOINT RightLegRoll
        {
          OFFSET 0 20.6244 0
          CHANNELS 3 Zrotation Xrotation Yrotation
          JOINT RightFoot
          {
            OFFSET 0 17.1664 0
            CHANNELS 3 Zrotation Xrotation Yrotation
            JOINT RightToeBase
            {
              OFFSET 0 14.3502 0
              CHANNELS 3 Zrotation Xrotation Yrotation
              End Site
              {
                OFFSET 0.00608252 6.94971 -0.801061
              }
            }
          }
        }
      }
    }
  }
  JOINT LeftUpLeg
  {
    OFFSET 5.66616 -1.03903 -0.87161
    CHANNELS 3 Zrotation Xrotation Yrotation
    JOINT LeftUpLegRoll
    {
      OFFSET 0 16.6006 0
      CHANNELS 3 Zrotation Xrotation Yrotation
      JOINT LeftLeg
      {
        OFFSET 0 20.5571 0
        CHANNELS 3 Zrotation Xrotation Yrotation
        JOINT LeftLegRoll
        {
          OFFSET 0 20.8151 0
          CHANNELS 3 Zrotation Xrotation Yrotation
          JOINT LeftFoot
          {
            OFFSET 0 16.9757 0
            CHANNELS 3 Zrotation Xrotation Yrotation
            JOINT LeftToeBase
            {
              OFFSET 0 14.3502 0
              CHANNELS 3 Zrotation Xrotation Yrotation
              End Site
              {
                OFFSET -0.0272592 6.9497 -0.801061
              }
            }
          }
        }
      }
    }
  }
}
MOTION
Frames: 8
Frame Time: 0.00208333
53.1631 85.6215 11.7641 -0.597199 -3.47548 -11.2866 -0.443794 -1.13969 -0.365023 -0.90427 1.72606 -0.686991 -0.896751 3.37097 -0.672098 2.2825 9.13774 -1.02003 -2.88048 4.14416 -0.51879 64.205 -0.807112 -1.07681 106.731 17.4359 2.43115 -3.05463e-006 8.70523e-007 -3.91098e-006 14.6947 9.05017 -1.55713 1.48818e-007 -6.31278e-006 -3 8.02891 -4.95142 0.697702 -56.7566 1.41928 -1.19614 -110.57 17.096 1.59713 -1.62816e-006 6.518e-007 4.47958e-006 -11.6422 6.34093 1.17524 -2.87435e-006 1.53941e-006 2.99999 -8.02888 -4.95144 -0.697678 170.741 -1.05185 3.53826 180 7.01526e-015 178.835 176.299 5.95168 179.779 -7.81407e-007 -1.14652e-006 0.0208518 -17.854 67.5155 19.1462 8.13658 25.234 -3.48599 -173.259 -3.05099 -0.435524 4.54188e-006 -4.6773e-006 -1.21296 -0.523807 -6.41518 0.449012 1.50862e-006 3.14011e-006 -0.113962 19.602 69.1502 -20.54 -8.12697 25.2332 3.48368 
53.1553 85.6226 11.7588 -0.598333 -3.4711 -11.2804 -0.443579 -1.14085 -0.365841 -0.902541 1.72372 -0.687634 -0.895015 3.36863 -0.672783 2.26287 9.14143 -1.02187 -2.85174 4.14021 -0.524859 64.2046 -0.816914 -1.08221 106.734 17.4449 2.42581 -3.05463e-006 8.70523e-007 -3.91098e-006 14.6946 9.05414 -1.55871 1.48818e-007 -6.31278e-006 -3 8.02891 -4.95142 0.697702 -56.7611 1.43419 -1.20504 -110.573 17.0758 1.62563 -1.62816e-006 6.518e-007 4.47958e-006 -11.6619 6.45117 1.18922 -2.87435e-006 1.53941e-006 2.99999 -8.02888 -4.95144 -0.697678 170.746 -1.05036 3.53586 180 7.01526e-015 178.835 176.299 5.952 179.779 -7.81407e-007 -1.14652e-006 0.0208518 -17.8534 67.5158 19.1469 8.13658 25.234 -3.48599 -173.259 -3.03697 -0.430784 4.54188e-006 -4.6773e-006 -1.21298 -0.516614 -6.43258 0.450066 1.50862e-006 3.14011e-006 -0.113955 19.6029 69.1581 -20.5474 -8.12697 25.2332 3.48368 
53.1606 85.6252 11.776 -0.599502 -3.46662 -11.274 -0.443355 -1.14202 -0.366692 -0.900738 1.72139 -0.688277 -0.893205 3.3663 -0.673469 2.24187 9.14481 -1.02372 -2.82099 4.13643 -0.531227 64.204 -0.827317 -1.08794 106.738 17.4544 2.4201 -3.05463e-006 8.70523e-007 -3.91098e-006 14.6945 9.05843 -1.56037 1.48818e-007 -6.31278e-006 -3 8.02891 -4.95142 0.697702 -56.7657 1.44936 -1.21409 -110.575 17.0551 1.6544 -1.62816e-006 6.518e-007 4.47958e-006 -11.6819 6.56418 1.20354 -2.87435e-006 1.53941e-006 2.99999 -8.02888 -4.95144 -0.697678 170.75 -1.04883 3.53328 180 7.01526e-015 178.835 176.299 5.95232 179.779 -7.81407e-007 -1.14652e-006 0.0208518 -17.8528 67.5161 19.1476 8.13658 25.234 -3.48599 -173.259 -3.02258 -0.426158 4.54188e-006 -4.6773e-006 -1.21301 -0.50951 -6.4505 0.451103 1.50862e-006 3.14011e-006 -0.113944 19.6041 69.1662 -20.555 -8.12697 25.2332 3.48368 
53.1604 85.6237 11.7739 -0.600696 -3.46205 -11.2674 -0.443127 -1.14317 -0.367564 -0.898884 1.71907 -0.688919 -0.891344 3.36398 -0.674157 2.21993 9.14797 -1.02558 -2.78885 4.1328 -0.537805 64.2033 -0.838142 -1.09389 106.742 17.4641 2.41412 -3.05463e-006 8.70523e-007 -3.91098e-006 14.6945 9.06295 -1.56209 1.48818e-007 -6.31278e-006 -3 8.02891 -4.95142 0.697702 -56.7703 1.46471 -1.22325 -110.578 17.0339 1.68335 -1.62816e-006 6.518e-007 4.47958e-006 -11.7021 6.67914 1.21811 -2.87435e-006 1.53941e-006 2.99999 -8.02888 -4.95144 -0.697678 170.755 -1.04726 3.53059 180 7.01526e-015 178.835 176.3 5.95261 179.779 -7.81407e-007 -1.14652e-006 0.0208518 -17.8522 67.5165 19.1483 8.13658 25.234 -3.48599 -173.258 -3.00791 -0.421611 4.54188e-006 -4.6773e-006 -1.21306 -0.502466 -6.46877 0.452127 1.50862e-006 3.14011e-006 -0.113931 19.6056 69.1744 -20.5627 -8.12697 25.2332 3.48368 
53.1592 85.6239 11.7653 -0.601905 -3.45744 -11.2607 -0.442896 -1.14433 -0.36845 -0.897 1.71676 -0.689562 -0.889454 3.36166 -0.674845 2.19744 9.151 -1.02744 -2.75591 4.12923 -0.544503 64.2026 -0.849206 -1.09997 106.746 17.4739 2.40798 -3.05463e-006 8.70523e-007 -3.91098e-006 14.6944 9.06761 -1.56385 1.48818e-007 -6.31278e-006 -3 8.02891 -4.95142 0.697702 -56.775 1.48016 -1.23246 -110.58 17.0125 1.7124 -1.62816e-006 6.518e-007 4.47958e-006 -11.7225 6.79521 1.23284 -2.87435e-006 1.53941e-006 2.99999 -8.02888 -4.95144 -0.697678 170.76 -1.04567 3.52782 180 7.01526e-015 178.835 176.3 5.9529 179.779 -7.81407e-007 -1.14652e-006 0.0208518 -17.8516 67.5169 19.1491 8.13658 25.234 -3.48599 -173.258 -2.99308 -0.417109 4.54188e-006 -4.6773e-006 -1.21311 -0.495457 -6.48725 0.453145 1.50862e-006 3.14011e-006 -0.113917 19.6071 69.1827 -20.5705 -8.12697 25.2332 3.48368 
53.1639 85.621 11.7713 -0.603118 -3.45281 -11.2541 -0.442663 -1.14548 -0.369339 -0.895109 1.71444 -0.690204 -0.887556 3.35935 -0.675533 2.17482 9.154 -1.02931 -2.72277 4.12569 -0.551231 64.2019 -0.860331 -1.10608 106.751 17.4838 2.40181 -3.05463e-006 8.70523e-007 -3.91098e-006 14.6944 9.07229 -1.56561 1.48818e-007 -6.31278e-006 -3 8.02891 -4.95142 0.697702 -56.7797 1.49564 -1.24169 -110.582 16.991 1.74148 -1.62816e-006 6.518e-007 4.47958e-006 -11.743 6.91156 1.2476 -2.87435e-006 1.53941e-006 2.99999 -8.02888 -4.95144 -0.697678 170.765 -1.04407 3.52504 180 7.01526e-015 178.835 176.3 5.95319 179.779 -7.81407e-007 -1.14652e-006 0.0208518 -17.851 67.5173 19.1499 8.13658 25.234 -3.48599 -173.257 -2.97822 -0.412619 4.54188e-006 -4.6773e-006 -1.21316 -0.488457 -6.50578 0.45416 1.50862e-006 3.14011e-006 -0.113902 19.6087 69.191 -20.5784 -8.12697 25.2332 3.48368 
53.1582 85.6238 11.776 -0.604326 -3.44821 -11.2474 -0.442433 -1.14664 -0.370221 -0.893233 1.71213 -0.690847 -0.885673 3.35704 -0.676221 2.15247 9.15706 -1.03117 -2.69003 4.1221 -0.557899 64.2012 -0.871336 -1.11213 106.755 17.4937 2.39572 -3.05463e-006 8.70523e-007 -3.91098e-006 14.6944 9.07691 -1.56736 1.48818e-007 -6.31278e-006 -3 8.02891 -4.95142 0.697702 -56.7844 1.51106 -1.25089 -110.584 16.9696 1.77049 -1.62816e-006 6.518e-007 4.47958e-006 -11.7635 7.02735 1.26232 -2.87435e-006 1.53941e-006 2.99999 -8.02888 -4.95144 -0.697678 170.77 -1.04249 3.52229 180 7.01526e-015 178.835 176.3 5.95346 179.779 -7.81407e-007 -1.14652e-006 0.0208518 -17.8505 67.5177 19.1506 8.13658 25.234 -3.48599 -173.257 -2.96344 -0.408106 4.54188e-006 -4.6773e-006 -1.21321 -0.481438 -6.52421 0.45518 1.50862e-006 3.14011e-006 -0.113888 19.6103 69.1992 -20.5862 -8.12697 25.2332 3.48368 
53.163 85.6236 11.7785 -0.605517 -3.44367 -11.2409 -0.442206 -1.1478 -0.371088 -0.891394 1.7098 -0.691489 -0.883827 3.35471 -0.676908 2.1308 9.16028 -1.03303 -2.65829 4.11843 -0.564417 64.2005 -0.88204 -1.11802 106.759 17.5033 2.38981 -3.05463e-006 8.70523e-007 -3.91098e-006 14.6944 9.08137 -1.56907 1.48818e-007 -6.31278e-006 -3 8.02891 -4.95142 0.697702 -56.789 1.52636 -1.26002 -110.587 16.9485 1.79936 -1.62816e-006 6.518e-007 4.47958e-006 -11.7839 7.14174 1.27687 -2.87435e-006 1.53941e-006 2.99999 -8.02888 -4.95144 -0.697678 170.774 -1.04093 3.51963 180 7.01526e-015 178.835 176.301 5.95377 179.779 -7.81407e-007 -1.14652e-006 0.0208518 -17.8499 67.5181 19.1514 8.13658 25.234 -3.48599 -173.257 -2.94885 -0.403537 4.54188e-006 -4.6773e-006 -1.21325 -0.474374 -6.54238 0.456208 1.50862e-006 3.14011e-006 -0.113875 19.6117 69.2074 -20.5939 -8.12697 25.2332 3.48368 
